<svg xmlns="http://www.w3.org/2000/svg" width="95" height="50" viewBox="0 0 95 50"><g fill="none" fill-rule="evenodd"><path fill="#2B388F" d="M9.406 40.662c-2.505-.059-4.894.501-4.894 2.682 0 1.414.893 2.062 2.016 2.062 1.41 0 2.446-.943 2.763-1.974.086-.265.115-.56.115-.796m3.455 1.592c0 1.296.057 2.563.201 3.447H9.867l-.23-1.591H9.55C8.687 47.204 7.218 48 5.405 48 2.583 48 1 45.907 1 43.727c0-3.624 3.138-5.452 8.32-5.422v-.236c0-.943-.374-2.505-2.85-2.505-1.382 0-2.822.442-3.772 1.06l-.69-2.356C3.044 33.619 4.858 33 7.075 33c4.49 0 5.786 2.917 5.786 6.042v5.186zm13.401 3.005c-.749.354-2.217.767-3.973.767-4.376 0-7.226-2.889-7.226-7.338 0-4.302 2.879-7.662 7.802-7.662 1.295 0 2.62.295 3.426.678l-.634 2.711c-.575-.265-1.41-.56-2.677-.56-2.706 0-4.319 2.033-4.29 4.656 0 2.947 1.872 4.626 4.29 4.626 1.238 0 2.102-.264 2.793-.56l.489 2.682zm12.38 0c-.75.354-2.218.767-3.974.767-4.376 0-7.225-2.889-7.225-7.338 0-4.302 2.878-7.662 7.801-7.662 1.296 0 2.62.295 3.426.678l-.633 2.711c-.576-.265-1.41-.56-2.677-.56-2.707 0-4.319 2.033-4.29 4.656 0 2.947 1.872 4.626 4.29 4.626 1.237 0 2.101-.264 2.792-.56l.49 2.682zm4.577-5.716c.086 2.593 2.073 3.712 4.318 3.712 1.642 0 2.822-.236 3.887-.648l.518 2.504c-1.21.502-2.879.915-4.894.915-4.549 0-7.226-2.889-7.226-7.279 0-3.978 2.36-7.721 6.852-7.721 4.577 0 6.045 3.831 6.045 6.984a9.08 9.08 0 0 1-.115 1.533h-9.385zm6.16-2.535c.03-1.326-.546-3.507-2.907-3.507-2.188 0-3.109 2.033-3.253 3.507h6.16zm5.73 5.364c.806.5 2.332 1.03 3.598 1.03 1.555 0 2.246-.647 2.246-1.59 0-.973-.576-1.474-2.303-2.092-2.735-.973-3.886-2.506-3.858-4.186 0-2.534 2.044-4.508 5.297-4.508 1.555 0 2.908.413 3.714.855l-.69 2.564c-.605-.354-1.728-.826-2.966-.826-1.267 0-1.958.62-1.958 1.503 0 .914.662 1.356 2.447 2.005 2.534.942 3.714 2.268 3.743 4.39 0 2.593-1.987 4.509-5.7 4.509-1.7 0-3.225-.442-4.261-1.032l.69-2.622zm11.716 0c.806.5 2.332 1.03 3.599 1.03 1.555 0 2.246-.647 2.246-1.59 0-.973-.576-1.474-2.304-2.092-2.735-.973-3.886-2.506-3.857-4.186 0-2.534 2.044-4.508 5.297-4.508 1.554 0 2.907.413 3.714.855l-.691 2.564c-.605-.354-1.727-.826-2.965-.826-1.267 0-1.958.62-1.958 1.503 0 .914.662 1.356 2.447 2.005 2.533.942 3.714 2.268 3.743 4.39 0 2.593-1.987 4.509-5.7 4.509-1.7 0-3.225-.442-4.261-1.032l.69-2.622zm25.22-3.979c0 5.275-3.628 7.633-7.198 7.633-3.973 0-7.025-2.8-7.025-7.397 0-4.715 3.023-7.603 7.255-7.603 4.175 0 6.967 3.006 6.967 7.367zm-10.567.148c0 2.77 1.325 4.862 3.484 4.862 2.015 0 3.426-2.033 3.426-4.921 0-2.24-.98-4.803-3.397-4.803-2.505 0-3.513 2.474-3.513 4.862zm11.458 5.053c.598 0 1.064.476 1.064 1.082 0 .619-.466 1.095-1.07 1.095a1.077 1.077 0 0 1-1.084-1.095c0-.606.479-1.082 1.084-1.082h.006zm-.013.19c-.479 0-.844.401-.844.892 0 .504.365.898.857.898.472.007.83-.394.83-.891 0-.498-.358-.899-.836-.899h-.007zm-.186 1.491h-.206v-1.137c.113-.02.233-.033.385-.033.186 0 .28.033.346.088a.296.296 0 0 1 .113.244c0 .137-.1.225-.212.266v.014c.092.04.145.129.179.279.033.17.06.238.086.279h-.213c-.033-.04-.06-.143-.093-.293-.026-.13-.099-.184-.253-.184h-.132v.477zm0-.64h.14c.146 0 .286-.048.286-.177 0-.109-.074-.19-.267-.19a.763.763 0 0 0-.16.013v.354z"/><path fill="#509D30" d="M47 .733c-7.732 0-14 6.268-14 14s6.268 14 14 14 14-6.268 14-14-6.268-14-14-14"/><path fill="#FFF" d="M42.127 19.208c-4.095 5.443-5.427 4.777-5.427 4.777C44.344 15.5 46.976 1.045 47 1.252c-.024-.206 2.656 14.248 10.3 22.733 0 0-1.35.68-5.427-4.777-2.34-3.134-7.31-3.24-9.746 0z"/></g></svg>